<svg xmlns="http://www.w3.org/2000/svg" style="isolation:isolate" viewBox="0 0 300 200" width="400" height="200pt"><defs><clipPath id="a"><path d="M0 0h300v200H0z"/></clipPath></defs><g clip-path="url(#a)"><path d="M45.38 107.524q2.805 0 8.085-.22 5.28-.22 6.985-.22h1.485q7.205 0 10.725 2.942 3.52 2.943 3.52 7.728 0 6.82-8.91 9.46v.165q5.17.77 8.168 4.042 2.997 3.273 2.997 7.838 0 6.105-4.152 9.515-4.153 3.41-12.183 3.41-2.2 0-7.122-.357-4.923-.358-7.838-.358-.33 0-1.045.028-.715.027-1.045.027-.33-.963 0-1.925l4.565-.606q.22-2.093.22-6.444V110.11l-4.455-.551q-.22-.825 0-2.035Z" class="b"/><path d="M60.12 129.139h-4.4v19.91q2.805.495 4.455.605 6.655 0 9.185-2.502 2.53-2.503 2.53-7.838 0-4.29-3.107-7.233-3.108-2.942-8.663-2.942Z" class="b_i2"/><path d="M60.505 109.394q-2.75 0-4.565.385-.22 2.09-.22 6.875v9.735h4.29q5.115 0 7.453-2.09 2.337-2.09 2.337-6.215 0-4.18-2.557-6.435-2.558-2.255-6.738-2.255Z" class="b_i1"/><path d="M83.715 107.524q2.255 0 7.178-.22 4.922-.22 8.937-.22 8.36 0 11.935 3.327 3.575 3.328 3.575 9.268 0 3.575-2.475 6.435-2.475 2.86-6.49 4.29 2.365 4.015 4.427 7.535 2.063 3.52 2.998 5.225.935 1.705 1.705 3.053.77 1.347 1.127 1.842.358.495.688.825l3.96.55q.22.825 0 2.035h-9.35l-8.305-15.07q-1.65-3.135-3.135-4.84h-.77q-2.805 0-5.665-.331v17.768l5.005.548q.22.849 0 2.086-3.465-.161-7.81-.161-3.245 0-7.865.107-.33-1.013 0-2.032l4.565-.659q.22-2.087.22-6.426v-32.351l-4.455-.549q-.22-.825 0-2.035Z" class="r2"/><path d="M94.055 116.674v12.354q1.705.221 4.95.221 2.805 0 4.812-.91 2.008-.91 2.998-2.427.99-1.516 1.43-3.116.44-1.599.44-3.364 0-4.743-2.365-7.391-2.365-2.647-7.865-2.647-2.035 0-4.07.386-.33 3.144-.33 6.894Z" class="r2_i"/><path d="m135.03 135.741-4.895 13.642 4.455.548q.22.849 0 2.086-3.465-.161-5.83-.161-1.32 0-5.94.107-.33-1.013 0-2.032l3.63-.659q.88-1.318 2.2-4.889l14.19-37.902h1.925l15.95 42.901 4.455.549q.22.849 0 2.086-3.465-.161-7.755-.161-3.19 0-7.81.107-.33-1.013 0-2.032l4.565-.657-4.84-13.533h-14.3Z" class="a3"/><path d="M143.5 113.876h-.055q-.66 2.585-2.145 6.765l-4.125 11.44h12.32l-4.015-11.44q-1.155-3.355-1.98-6.765Z" class="a3_i"/><path d="M203.78 137.293v-19.877q0-4.337-.22-6.424l-5.115-.659q-.33-1.02 0-2.031 3.465.161 6.71.161 3.575 0 6.655-.214.22 1.234 0 2.084l-5.005.549v41.141h-2.915l-24.255-32.788q-1.705-2.252-4.015-5.877.275 2.523.275 6.087v23.579q0 4.332.22 6.416l5.115.658q.33 1.019 0 2.032-4.73-.107-6.71-.107-3.245 0-6.655.161-.22-1.237 0-2.086l5.005-.548v-32.306q0-4.333-.22-6.418l-4.565-.658q-.33-.962 0-1.925h10.78l22.055 30.03q.44.605.962 1.43.523.825 1.155 1.98.633 1.155 1.018 1.76-.275-3.294-.275-6.15Z" class="n"/><path d="M214.285 151.604q-.33-.962 0-1.925l4.565-.66q.22-2.093.22-6.444v-32.44l-4.455-.551q-.22-.825 0-2.035.825.055 2.585.055 3.52 0 9.102-.302 5.583-.303 6.408-.303 10.78 0 16.335 5.83 5.555 5.83 5.555 15.675 0 10.01-5.225 16.61t-14.63 6.6q-3.135 0-8.305-.082-5.17-.083-7.425-.083-3.19 0-4.73.055Z" class="d"/><path d="M232.105 149.102q15.51 0 15.51-20.24 0-8.745-4.042-13.805-4.043-5.06-11.633-5.39-.66-.055-2.035-.055-2.915 0-5.28.44-.22 2.09-.22 6.655v32.23q.66 0 3.163.082 2.502.083 4.537.083Z" class="d_i"/><path d="m17.825 60.521.055-12.76h38.005l.055 12.76q-1.21.22-2.035 0l-2.585-10.01H39.88v38.555l5.555.55q.22.849 0 2.086-3.465-.161-8.36-.161-3.795 0-8.415.107-.33-1.013 0-2.032l5.115-.66q.22-2.09.22-6.435v-32.01h-11.55l-2.585 10.01q-.825.22-2.035 0Z" class="t"/><path d="m65.73 75.426-4.895 13.642 4.455.548q.22.849 0 2.086-3.465-.161-5.83-.161-1.32 0-5.94.107-.33-1.013 0-2.032l3.63-.659q.88-1.318 2.2-4.889l14.19-37.902h1.925l15.95 42.901 4.455.549q.22.849 0 2.086-3.465-.161-7.755-.161-3.19 0-7.81.107-.33-1.013 0-2.032l4.565-.657-4.84-13.533h-14.3Z" class="a1"/><path d="M73.045 54.471h-.055q-.66 2.585-2.145 6.765l-4.125 11.44h12.32l-4.015-11.44q-1.155-3.355-1.98-6.765Z" class="a1_i"/><path d="M97.685 47.596q2.255 0 7.178-.22 4.922-.22 8.937-.22 8.36 0 11.935 3.328 3.575 3.327 3.575 9.267 0 3.575-2.475 6.435-2.475 2.86-6.49 4.29 2.365 4.015 4.427 7.535 2.063 3.52 2.998 5.225.935 1.705 1.705 3.052.77 1.348 1.127 1.843.358.495.688.825l3.96.55q.22.825 0 2.035h-9.35l-8.305-15.07q-1.65-3.135-3.135-4.84h-.77q-2.805 0-5.665-.331v17.768l5.005.548q.22.849 0 2.086-3.465-.161-7.81-.161-3.245 0-7.865.107-.33-1.013 0-2.032l4.565-.659q.22-2.087.22-6.426V50.18l-4.455-.549q-.22-.825 0-2.035Z" class="r1"/><path d="M108.025 56.746V69.1q1.705.221 4.95.221 2.805 0 4.812-.91 2.008-.91 2.998-2.427.99-1.516 1.43-3.116.44-1.599.44-3.364 0-4.743-2.365-7.391-2.365-2.647-7.865-2.647-2.035 0-4.07.386-.33 3.144-.33 6.894Z" class="r1_i"/><path d="M158.735 46.661q5.39 0 9.68 1.925t6.93 5.143q2.64 3.217 4.042 7.15 1.403 3.932 1.403 8.222 0 9.9-6.215 16.72-6.215 6.82-15.84 6.82-5.335 0-9.625-1.925t-6.93-5.142q-2.64-3.218-4.043-7.123-1.402-3.905-1.402-8.14 0-6.325 2.777-11.715 2.778-5.39 7.866-8.663 5.087-3.272 11.357-3.272Z" class="o"/><path d="M158.68 89.616q5.17 0 8.772-2.998 3.603-2.997 5.17-7.562 1.568-4.565 1.568-10.175 0-5.335-1.568-9.542-1.567-4.208-5.142-6.93-3.575-2.723-8.8-2.723-7.535 0-11.44 5.5-3.905 5.5-3.905 13.75 0 5.665 1.54 10.202 1.54 4.538 5.115 7.508 3.575 2.97 8.69 2.97Z" class="o_i"/><path d="M227.595 82.531v-31.58l-16.61 42.24h-1.43l-16.005-40.81v30.161q0 4.332.22 6.416l5.115.658q.33 1.019 0 2.032-4.73-.107-6.71-.107-3.3 0-6.655.161-.22-1.237 0-2.086l5.005-.548V56.762q0-4.334-.22-6.418l-4.565-.658q-.33-.963 0-1.925h12.1l13.805 36.19 14.135-36.19q1.265.055 3.85.055.55 0 8.635-.165.33.99 0 1.98l-4.565.659q-.22 2.087-.22 6.426v32.351l4.455.549q.22.849 0 2.086-3.465-.161-7.535-.161-2.97 0-7.59.107-.33-1.409 0-2.032l4.565-.659q.22-2.087.22-6.426Z" class="m"/><path d="m252.51 75.426-4.895 13.642 4.455.548q.22.849 0 2.086-3.465-.161-5.83-.161-1.32 0-5.94.107-.33-1.013 0-2.032l3.63-.659q.88-1.318 2.2-4.889l14.19-37.902h1.925l15.95 42.901 4.455.549q.22.849 0 2.086-3.465-.161-7.755-.161-3.19 0-7.81.107-.33-1.013 0-2.032l4.565-.657-4.84-13.533h-14.3Z" class="a2"/><path d="M259.825 54.471h-.055q-.66 2.585-2.145 6.765l-4.125 11.44h12.32l-4.015-11.44q-1.155-3.355-1.98-6.765Z" class="a2_i"/></g></svg>